<svg width="20" height="21" viewBox="0 0 20 21" fill="none" xmlns="http://www.w3.org/2000/svg">
<path d="M12.9833 10.4828C12.9833 12.1328 11.6499 13.4661 9.99993 13.4661C8.34993 13.4661 7.0166 12.1328 7.0166 10.4828C7.0166 8.83278 8.34993 7.49945 9.99993 7.49945C11.6499 7.49945 12.9833 8.83278 12.9833 10.4828Z" stroke="#292D32" stroke-width="1.5" stroke-linecap="round" stroke-linejoin="round"/>
<path d="M9.99987 17.3745C12.9415 17.3745 15.6832 15.6411 17.5915 12.6411C18.3415 11.4661 18.3415 9.49113 17.5915 8.31613C15.6832 5.31613 12.9415 3.58279 9.99987 3.58279C7.0582 3.58279 4.31654 5.31613 2.4082 8.31613C1.6582 9.49113 1.6582 11.4661 2.4082 12.6411C4.31654 15.6411 7.0582 17.3745 9.99987 17.3745Z" stroke="#292D32" stroke-width="1.5" stroke-linecap="round" stroke-linejoin="round"/>
</svg>
